<?xml version="1.0" encoding="UTF-8"?><svg id="a" xmlns="http://www.w3.org/2000/svg" viewBox="0 0 2185.73 1794.71"><path d="m1346.49,214.2c-16.7-6.63-34.41,2.77-48.87,14.18-13.67-2.46-26.99-2.29-39.68.48-42.54,9.32-71.89,46-120.74,150.94-25.56,54.87-48.68,112.01-68.77,169.87-5.78,3.39-11.81,6.98-18.09,10.71-31.69,18.84-71.12,42.3-119.35,63.76-65.36,29.07-118.78,42.25-170.43,55-70.85,17.49-132.03,32.58-203.16,83.86-26.43,19.05-43.89,31.63-61.92,55.26-21.08,27.65-30.37,53.88-39.34,79.25-9.87,27.9-19.19,54.25-44.23,79.85-10.49,10.73-22.34,20.16-35.26,28.05l-.15.1c-5.34,3.38-6.99,10.43-3.69,15.84,3.34,5.46,10.47,7.18,15.93,3.84,14.54-8.9,27.91-19.53,39.73-31.62,28.62-29.24,39.24-59.28,49.52-88.33,8.37-23.68,17.04-48.17,35.92-72.92,15.94-20.89,31.4-32.04,57.03-50.52,67.49-48.64,126.66-63.24,195.17-80.16,50.17-12.38,107.06-26.42,174.28-56.33,49.5-22.01,89.57-45.86,121.78-65.02,34.05-20.25,60.6-36.04,76.54-36.47,1.04-.02,2.02.02,2.97.12,2.83.31,5.26,1.24,7.26,2.84,11.29,9.13,9.82,35.7,5.13,55.71-6.33,26.93-27.25,60.01-136.53,119.11-59.78,32.33-123.52,59.99-189.46,82.22-6.06,2.04-9.32,8.61-7.27,14.68s8.62,9.33,14.68,7.27c67.18-22.63,132.14-50.82,193.08-83.78,20.46-11.06,38.1-21.35,53.34-31,67.32-42.62,87.6-72.86,94.72-103.22.9-3.83,1.94-8.88,2.76-14.64.2-.34.39-.71.55-1.08,30.31-68.35,59.21-135.41,85.88-199.31l1.48-3.53c20.8-49.88,44.39-106.4,69.14-106.37.08,0,7.2.13,12.4,4.52.75.62,1.48,1.37,2.15,2.25,1.44,1.8,2.76,4.18,3.77,7.3,3.49,10.67,3.63,30.04-5.72,64.99-10.36,38.76-28.94,84.08-47.08,127.18-82.69,196.48-128.23,304.7-147.52,326.12-54.77,60.85-104.72,79.63-173.86,105.61-53.9,20.26-120.99,45.47-211.13,98.02-90.83,52.95-176.07,116.74-253.38,189.59-4.65,4.39-4.87,11.73-.49,16.39,4.39,4.65,11.72,4.86,16.39.49,76.02-71.66,159.86-134.38,249.14-186.46,88.44-51.56,154.53-76.39,207.62-96.35,42.44-15.94,77.95-29.28,111.92-50.78,23.82-15.08,46.89-34.18,71.03-61,21.9-24.33,62.56-120.95,151.65-332.63,18.44-43.85,37.37-90.02,48.12-130.18,10.49-39.2,11.48-66.73,2.83-84.6.27-17.16-1.83-58.79-27.79-69.12Zm-214.27,306.95c-9.9,1.5-20.9,5.69-33.23,11.76,17.73-48.79,37.58-96.88,59.21-143.33,50.18-107.78,75.51-131.68,104.69-138.07,3.68-.81,7.44-1.31,11.28-1.53-62.28,63.76-111.08,180.64-141.95,271.18Zm113.68-140.85l-1.47,3.53c-21.67,51.91-44.82,105.91-68.99,161-2.67-6.16-6.52-11.7-11.94-16.07-2.49-2.01-5.05-3.62-7.74-4.85,42.7-124.06,90.49-214.25,138.49-261.26,7.95-7.78,32.15-31.48,43.68-26.91,6.27,2.49,10.02,13.68,11.84,26.23-6.43-2.12-11.75-2.3-13.29-2.29-40.22-.03-64.68,58.57-90.58,120.62Z" style="fill:#fafafa;"/><path d="m1920.95,1012.12c-23.13-18.79-53.48-73.72-53.48-96.84,0-10.12,2.89-14.45,7.23-14.45,7.23,0,20.24,14.45,33.24,40.47,11.56,21.68,26.02,41.92,31.8,44.81l34.69,17.34c26.02,13.01,44.81,14.45,44.81,5.78,0-2.89,13.01-11.56,30.35-14.45,21.68-4.34,34.69-14.45,43.36-28.91,8.67-14.45,13.01-27.46,13.01-43.36,0-39.03-30.35-85.28-101.18-151.77-39.03-37.58-76.61-79.5-79.5-89.61-2.89-13.01-5.78-30.35-5.78-47.7s2.89-34.69,7.23-49.14c8.67-26.02,70.82-73.71,108.4-80.94,15.9-2.89,27.46-4.34,37.58-4.34,13.01,0,23.13,2.89,34.69,8.67,11.56,5.78,24.57,11.56,28.91,11.56,20.24,0,63.6,78.05,44.81,78.05-13.01,0-30.35-15.9-34.69-30.35-5.78-21.68-44.81-40.47-82.39-40.47-21.68,0-34.69,4.34-52.03,21.68l-23.13,21.68c1.45,15.9,1.45,33.24,2.89,49.14,2.89,56.37,7.23,60.71,98.29,154.66,63.6,66.49,79.5,92.51,79.5,132.98,0,31.8-31.8,80.94-63.6,96.84-34.69,17.34-76.61,26.02-114.19,26.02-28.91,0-56.37-5.78-70.82-17.34Z" style="fill:#fafafa;"/></svg>