<?xml version="1.0" encoding="UTF-8"?>
<svg class="navbar-link-icon" id="a" xmlns="http://www.w3.org/2000/svg" viewBox="0 0 993.43 938.2">
	<path class="b" d="m992.35,402.66c-.28-32.69-33.19-59.7-75.84-62.22l-69.48-4.12c-15.23-40.14-37.17-76.98-64.44-109.16l30-62.83c18.4-38.56,10.68-80.41-17.82-96.47l-109.03-61.46c-28.48-16.05-68.28-.98-91.74,34.72l-38.14,58.08c-19.31-3.08-39.12-4.67-59.3-4.67-21.74,0-43.04,1.85-63.77,5.41l-38.85-57.62c-23.89-35.41-63.87-49.99-92.16-33.6l-108.29,62.78c-28.29,16.39-35.51,58.35-16.64,96.67l30.75,62.47c-26.86,32.49-48.35,69.58-63.11,109.92l-69.42,4.96C32.47,348.57-.1,375.97,0,408.67l.44,125.16c.12,32.68,32.88,59.87,75.5,62.61l69.65,4.49c15.05,40.11,36.78,76.95,63.83,109.17l-30.47,62.99c-18.6,38.46-11.09,80.35,17.3,96.56l108.72,62.02c28.4,16.2,68.29,1.34,91.92-34.24l38.75-58.33c19.83,3.25,40.18,4.93,60.91,4.93,22.31,0,44.16-1.95,65.39-5.68l39.43,57.83c24.07,35.31,64.14,49.68,92.33,33.13l107.97-63.33c28.2-16.54,35.2-58.53,16.14-96.75l-31.24-62.62c26.66-32.52,47.94-69.61,62.51-109.92l69.59-5.34c42.58-3.26,75.02-30.83,74.74-63.52l-1.08-125.16Zm-495.79,179.8c-62.51,0-113.18-50.67-113.18-113.18s50.67-113.18,113.18-113.18,113.18,50.67,113.18,113.18-50.67,113.18-113.18,113.18Z" />
</svg>
