<?xml version="1.0" encoding="UTF-8"?>
<svg class="navbar-link-icon" id="a" xmlns="http://www.w3.org/2000/svg" viewBox="0 0 930.48 986.06">
	<path class="b" d="m158,257.06c-13.3-26.69-39.72-43.89-68-44-34.62-.13-66.41,25.36-75,62-.33,120.33-.67,240.67-1,361-.22,81.2,37.51,160.22,109,231,81.35,80.54,181.38,98.83,224,104,92,.33,184,.67,276,1,27.09-3.78,129.17-21.29,209-112,89.62-101.83,85.35-221.09,84-245-1-185.67-2-371.33-3-557-5.28-6.46-38.36-45.73-84-44-52.79,2-104.92,58.17-106,136-9.17-42.58-45-73.62-86-76-46.39-2.69-89.8,31.88-98,81-11.82-49.49-53.64-83.26-96-83-53.59.33-104.16,55.08-96,122-21.52-40.08-63.83-62.76-104-57-51.09,7.33-91.91,59.68-85,120Z" />
	<path class="c" d="m930,614.63l-3-556.65c-.02-3.21-1.13-6.31-3.16-8.79-9.59-11.72-44.03-49.19-91.9-49.19-1.15,0-2.31.02-3.47.07-30.12,1.14-60.25,17.42-82.67,44.66-13.56,16.48-23.67,36.11-29.82,57.5-18.69-24.38-46.91-40.33-78.17-42.14-26.13-1.52-52.04,7.08-72.99,24.21-10.87,8.88-19.87,19.65-26.66,31.7-7.11-12.05-16.12-22.85-26.65-31.77-20.09-17.02-44.47-26.35-68.59-26.16-29.24.18-58.21,14.15-79.49,38.33-14.68,16.68-24.5,36.93-28.8,58.54-25.53-24.32-59.83-36.57-93.61-31.73-28.52,4.09-55.34,20.76-73.57,45.73-11.03,15.11-18.44,32.36-21.92,50.56-15.75-12.86-35.3-20.36-55.47-20.43-.11,0-.22,0-.33,0-41.32,0-78.45,30.57-88.36,72.8-.24,1.04-.37,2.1-.37,3.16l-.66,240.05c-.42,1.9-.44,3.9-.02,5.89L0,636.02c-.12,42.4,9.62,84.6,28.95,125.44,19.03,40.2,47.35,79.08,84.2,115.55,36.62,36.25,80.84,64.32,131.43,83.41,31.92,12.05,65.82,20.3,100.74,24.54.54.07,1.09.1,1.63.1l276,1h.05c.65,0,1.29-.04,1.94-.13,29.22-4.08,59.71-12.49,88.17-24.34,50.48-21.01,94.02-52.06,129.41-92.28,39.48-44.86,66.15-98.01,79.28-157.97,8.93-40.81,9.41-75.05,8.21-96.7ZM636.19,88.03c35.26,2.04,65.33,28.76,73.12,64.97.32,1.48.87,2.85,1.6,4.1-.61,1.6-.94,3.33-.91,5.15l2.99,216.42c-1.43,20.24-7.05,37.98-16.71,52.71-5.94,9.07-12.95,16.3-20.74,22.26-.5.26-.99.54-1.46.87-8.61,5.9-31.85,19.06-61.63,13.76-35.86-6.37-54.29-35.16-59.45-44.61V156.36c7.3-40.68,43.65-70.62,83.19-68.32Zm-251.75,26.85c16.01-18.19,37.38-28.7,58.64-28.83,36.61-.22,71.55,30.1,81.91,70.78v266.8c-6.28,11.51-27.37,44.04-68.86,52.72-34.29,7.17-70.28-4.58-95.14-30.72v-255.58c0-1.5-.24-2.95-.68-4.31-1.46-26.05,7.15-51.57,24.13-70.86Zm-139.46,36.03c33.95-4.87,68.92,13.85,88.01,46.79v252.48c-4.25,36.81-30.76,67-66.17,75.24-37.06,8.63-75.57-8.58-94.83-41.98v-230.38c0-1.43-.22-2.81-.61-4.11-2.29-47.73,30.21-91.81,73.6-98.04Zm-155.26,76.14c.07,0,.15,0,.22,0,21.82.08,42.72,13.13,54.05,33.48v226.09c0,.06,0,.11,0,.17,0,.47,0,.94.04,1.41,2.43,29.66-15.98,56.73-43.76,64.36-29.1,8-60.08-7.85-71.96-36.27l.66-239.52c7.46-28.93,32.75-49.71,60.73-49.71Zm731.76,623.75c-71.28,81-162.49,101.95-199.45,107.25l-274.16-.99c-59.63-7.34-145.05-30.67-215.03-99.95-68.81-68.12-105.06-144.54-104.85-221.01l.21-74.27c15.92,13.22,36.05,20.79,56.85,20.79,7.52,0,15.13-.99,22.66-3.06,19.56-5.38,36.82-17.76,48.59-34.86,4.69-6.82,8.4-14.23,11.05-21.99,27.56,26.92,67.26,38.96,105.82,29.98,38.65-8.99,69.3-37.61,82.03-74.55,30.21,23.73,69.18,33.45,106.66,25.62,38.81-8.11,63.58-32.38,77.21-50.56,2.36,3.03,5.05,6.22,8.09,9.43,11.23,11.86,24.33,20.91,38.59,26.82-8.53,2.89-16.94,6.13-24.91,10.04-28.81,14.11-53.43,37.71-73.2,70.14-24.06,39.48-41.71,93.38-52.47,160.21-1.23,7.63,3.96,14.82,11.6,16.05.75.12,1.5.18,2.24.18,6.75,0,12.7-4.9,13.81-11.78,18.04-112.09,55.16-182.63,110.34-209.65,13.24-6.48,28.3-10.97,44.24-15.72,35.86-10.68,76.51-22.79,102.31-62.18,12.41-18.95,19.56-41.4,21.26-66.73.03-.38.04-.75.03-1.13l-3-217c-.03-2.51-.73-4.84-1.91-6.86.56-1.48.89-3.08.91-4.75.46-33.3,11.27-64.46,30.42-87.74,17.33-21.07,39.97-33.63,62.11-34.47,32.83-1.23,58.83,23.24,69.5,35.21l2.97,551.88c0,.24,0,.48.02.72,2.29,40.53-.97,144.55-80.53,234.96Z" />
</svg>
