<?xml version="1.0" encoding="UTF-8"?>
<svg id="a" xmlns="http://www.w3.org/2000/svg" viewBox="0 0 874.48 930.05">
	<path class="f" d="m.33,488.28l.67-239.52c7.46-28.93,32.74-49.71,60.73-49.71h.22c21.82.08,42.71,13.13,54.05,33.48v226.09s.01.11.01.16c-.01.47,0,.94.04,1.41,2.42,29.66-15.98,56.73-43.76,64.36-29.1,8-60.08-7.85-71.96-36.27Z" />
	<path class="f" d="m143.39,220.94c-2.3-47.72,30.21-91.81,73.6-98.03,33.95-4.87,68.91,13.85,88.01,46.79v252.48c-4.25,36.8-30.76,67-66.17,75.23-37.07,8.63-75.57-8.58-94.83-41.98v-230.38c0-1.43-.22-2.81-.61-4.11Z" />
	<path class="f" d="m332.32,157.74c-1.47-26.05,7.14-51.56,24.12-70.86,16.01-18.19,37.39-28.7,58.65-28.83,36.6-.22,71.54,30.1,81.91,70.78v266.8c-6.28,11.51-27.37,44.04-68.86,52.72-34.3,7.16-70.29-4.58-95.14-30.72v-255.58c0-1.5-.24-2.95-.68-4.31Z" />
	<path class="f" d="m525,395.66V128.35c7.3-40.67,43.65-70.62,83.19-68.32,35.26,2.04,65.33,28.76,73.12,64.97.32,1.48.88,2.85,1.6,4.1-.6,1.6-.93,3.33-.91,5.14l2.99,216.43c-1.43,20.24-7.05,37.97-16.7,52.71-5.94,9.07-12.95,16.3-20.74,22.26-.5.26-.99.54-1.47.86-8.6,5.9-31.84,19.06-61.63,13.77-35.86-6.37-54.29-35.16-59.45-44.61Z" />
	<path class="f" d="m793.49,822.8c-71.28,81-162.49,101.95-199.45,107.25l-274.16-1c-59.63-7.34-145.05-30.67-215.03-99.95C36.04,760.98-.21,684.56,0,608.09l.21-74.27c15.91,13.22,36.04,20.79,56.84,20.79,7.52,0,15.14-.99,22.66-3.06,19.56-5.38,36.82-17.76,48.59-34.86,4.69-6.82,8.4-14.23,11.05-21.99,27.56,26.92,67.26,38.96,105.82,29.99,38.65-9,69.3-37.62,82.04-74.55,30.21,23.72,69.18,33.45,106.65,25.61,38.81-8.11,63.58-32.38,77.22-50.55,2.35,3.03,5.04,6.21,8.09,9.42,11.23,11.86,24.32,20.91,38.59,26.82-8.53,2.89-16.94,6.13-24.92,10.04-28.8,14.11-53.43,37.7-73.2,70.13-24.06,39.48-41.71,93.39-52.46,160.22-1.23,7.63,3.96,14.81,11.6,16.04.75.12,1.5.18,2.24.18,6.75,0,12.69-4.9,13.8-11.78,18.04-112.09,55.16-182.62,110.34-209.65,13.24-6.48,28.3-10.97,44.24-15.72,35.86-10.68,76.51-22.79,102.31-62.18,12.41-18.95,19.56-41.4,21.26-66.73.02-.38.03-.76.03-1.13l-3-217c-.04-2.51-.73-4.84-1.91-6.86.56-1.49.89-3.09.91-4.76.46-33.29,11.27-64.45,30.42-87.73C756.76,13.44,779.39.88,801.53.04c32.83-1.23,58.83,23.24,69.5,35.21l2.97,551.88c0,.23.01.47.02.71,2.29,40.53-.96,144.55-80.53,234.96Z" />
</svg>
