<?xml version="1.0" encoding="UTF-8"?>
<svg id="b" xmlns="http://www.w3.org/2000/svg" viewBox="0 0 867.62 904.32">
	<defs>
		<style>
			.c{fill:#343a40;}.d{fill:#fff;}.e{fill:#2b3035;}.f{fill:#212529;}.g{fill:#e6e6e6;}.h{fill:#ccc;}.i{fill:#f2f2f2;}
		</style>
	</defs>
	<path class="g" d="m721.65,904.16c8.91-1.11,18.35-8.24,28.28-28.18,27.61-55.46,59.9-211.94,65.74-240.54-79.33,8.22-158.66,16.44-238,24.66,11.26,28.79,71.17,180.6,111.06,225.37,5.91,6.63,18.58,20.48,32.92,18.69Z" />
	<path class="g" d="m145.97,904.16c-8.91-1.11-18.35-8.24-28.28-28.18-27.61-55.46-59.9-211.94-65.74-240.54,79.33,8.22,158.66,16.44,238,24.66-11.26,28.79-71.17,180.6-111.06,225.37-5.91,6.63-18.58,20.48-32.92,18.69Z" />
	<path class="i" d="m867.62,432.96v.85c0,59.05-11.8,115.36-33.18,166.67-35.71,85.77-98.17,157.61-176.97,205.11-65.31,39.39-141.84,62.04-223.66,62.04-87.01,0-168.04-25.61-235.95-69.73-82.77-53.74-146.06-134.94-176.97-230.69C7.32,525.17,0,480.35,0,433.81v-.85c.01-5.91.15-11.79.39-17.64,1.67-39.93,8.74-78.45,20.5-114.88,30.9-95.77,94.2-176.98,176.97-230.72C265.77,25.62,346.8,0,433.81,0c81.82,0,158.36,22.66,223.66,62.04,78.79,47.5,141.25,119.33,176.97,205.1,19.13,45.94,30.6,95.87,32.79,148.2.25,5.85.38,11.72.39,17.64Z" />
	<path class="h" d="m867.23,403.03c-32.33,8.47-65.99,15.99-100.91,22.55-105.28,19.79-217.15,29.81-332.51,29.81s-227.23-10.03-332.51-29.81c-34.91-6.56-68.57-14.08-100.91-22.55-.25,5.85-.38,11.72-.39,17.64,127.44,33.02,275.65,51.93,433.81,51.93s306.37-18.91,433.81-51.93c-.01-5.91-.15-11.79-.39-17.64Z" />
	<circle class="f" cx="433.81" cy="433.81" r="214" />
	<circle class="c" cx="433.81" cy="433.81" r="164.29" />
	<circle class="e" cx="433.81" cy="433.81" r="112.24" />
	<circle class="f" cx="433.81" cy="433.81" r="60.98" />
	<circle class="d" cx="418.09" cy="418.28" r="22.2" />
</svg>
